<svg xmlns="http://www.w3.org/2000/svg" viewBox="0 0 128 128">
  <defs>
    <radialGradient id="ay-body" cx="46" cy="42" r="98" gradientUnits="userSpaceOnUse">
      <stop offset="0" stop-color="#efc9ff"/>
      <stop offset="0.34" stop-color="#c866ff"/>
      <stop offset="0.66" stop-color="#ad46f2"/>
      <stop offset="0.88" stop-color="#8f2fe0"/>
      <stop offset="1" stop-color="#6d1cb4"/>
    </radialGradient>
    <linearGradient id="ay-rim" x1="20" y1="12" x2="110" y2="118" gradientUnits="userSpaceOnUse">
      <stop offset="0" stop-color="#ffe98a"/>
      <stop offset="0.5" stop-color="#ffd54a"/>
      <stop offset="1" stop-color="#c9971c"/>
    </linearGradient>
    <linearGradient id="ay-spec" x1="0" y1="0" x2="0.35" y2="1">
      <stop offset="0" stop-color="#ffffff" stop-opacity="0.95"/>
      <stop offset="1" stop-color="#ffffff" stop-opacity="0"/>
    </linearGradient>
    <clipPath id="ay-clip">
      <path d="M60 15 A9 9 0 0 1 68 15 L106 89 A13 13 0 0 1 94 108 L34 108 A13 13 0 0 1 22 89 Z"/>
    </clipPath>
    <filter id="ay-blur" x="-30%" y="-30%" width="160%" height="160%">
      <feGaussianBlur stdDeviation="5"/>
    </filter>
  </defs>
  <!-- trillion cut: rounded triangle, point up, radiant facets from the heart -->
  <path d="M60 15 A9 9 0 0 1 68 15 L106 89 A13 13 0 0 1 94 108 L34 108 A13 13 0 0 1 22 89 Z" fill="url(#ay-body)"/>
  <g clip-path="url(#ay-clip)">
    <ellipse cx="84" cy="98" rx="44" ry="30" fill="#57109a" opacity="0.5" filter="url(#ay-blur)"/>
    <ellipse cx="46" cy="38" rx="30" ry="26" fill="#f0d4ff" opacity="0.55" filter="url(#ay-blur)"/>
    <path d="M60 15 A9 9 0 0 1 68 15 L106 89 A13 13 0 0 1 94 108 L34 108 A13 13 0 0 1 22 89 Z" fill="none" stroke="#e3baff" stroke-width="5" opacity="0.5" filter="url(#ay-blur)" transform="translate(64 70) scale(0.9) translate(-64 -70)"/>
    <!-- radiant facets from the center to corners and edge midpoints -->
    <g stroke="#5e1699" stroke-opacity="0.35" stroke-width="1.6">
      <path d="M64 51 L64 14 M77 77 L104 92 M51 77 L24 92 M64 51 L45 51 M77 77 L86 106 M51 77 L42 106"/>
    </g>
    <g stroke="#ffffff" stroke-opacity="0.26" stroke-width="1.4">
      <path d="M64 51 L83 51 M64 51 L44 62 M77 77 L84 62 M51 77 L64 92 M77 77 L64 92 M51 77 L44 62"/>
    </g>
    <!-- triangular table -->
    <path d="M64 51 L77 77 L51 77 Z" fill="#ffffff" opacity="0.12" stroke="#ffffff" stroke-opacity="0.34" stroke-width="1.6"/>
    <!-- lit and shaded facets -->
    <path d="M64 14 L64 51 L44 62 Z" fill="#ffffff" opacity="0.15"/>
    <path d="M77 77 L104 92 L86 106 Z" fill="#4a0d82" opacity="0.22"/>
    <ellipse cx="53" cy="43" rx="13" ry="8" transform="rotate(-34 53 43)" fill="url(#ay-spec)"/>
    <circle cx="63" cy="28" r="3.2" fill="#ffffff" opacity="0.94"/>
  </g>
  <path d="M60 15 A9 9 0 0 1 68 15 L106 89 A13 13 0 0 1 94 108 L34 108 A13 13 0 0 1 22 89 Z" fill="none" stroke="url(#ay-rim)" stroke-width="3" stroke-linejoin="round"/>
</svg>
